<mxfile host="app.diagrams.net" modified="2022-03-14T04:02:05.399Z" agent="5.0 (Macintosh; Intel Mac OS X 10_15_7) AppleWebKit/605.1.15 (KHTML, like Gecko) Version/15.2 Safari/605.1.15" etag="w1D2Zbmqa2Gag2rFiDcu" version="17.1.2" type="github">
  <diagram name="Page-1" id="7a6c530e-6e37-e111-ec74-82921da8cc10">
    <mxGraphModel dx="2066" dy="1185" grid="0" gridSize="10" guides="1" tooltips="1" connect="1" arrows="1" fold="1" page="1" pageScale="1.5" pageWidth="1169" pageHeight="826" background="#FFFFFF" math="0" shadow="0">
      <root>
        <mxCell id="0" style=";html=1;" />
        <mxCell id="1" style=";html=1;" parent="0" />
        <mxCell id="k4qEEbZ26cPBe2Ehh2oo-118" value="&amp;nbsp; &lt;b style=&quot;font-size: 24px;&quot;&gt;场地&lt;/b&gt;" style="whiteSpace=wrap;html=1;rounded=0;shadow=0;strokeColor=none;strokeWidth=2;fillColor=#F1F1F1;fontSize=24;align=left;arcSize=3;verticalAlign=top;spacingTop=4;glass=0;sketch=0;" parent="1" vertex="1">
          <mxGeometry x="280" y="290" width="1190" height="1467" as="geometry" />
        </mxCell>
        <mxCell id="k4qEEbZ26cPBe2Ehh2oo-37" value="场地分拣线" style="rounded=0;whiteSpace=wrap;html=1;shadow=0;strokeWidth=2;fillColor=none;fontSize=18;align=left;strokeColor=#4D4D4D;arcSize=3;labelPosition=center;verticalLabelPosition=middle;verticalAlign=top;glass=0;labelBorderColor=none;labelBackgroundColor=none;fontStyle=1;spacing=0;spacingTop=8;dashed=1;spacingLeft=8;" parent="1" vertex="1">
          <mxGeometry x="338" y="720" width="1100" height="991" as="geometry" />
        </mxCell>
        <mxCell id="k4qEEbZ26cPBe2Ehh2oo-109" value="IT/OT设备" style="rounded=0;shadow=0;strokeColor=none;strokeWidth=2;fillColor=default;fontSize=16;align=left;arcSize=3;verticalAlign=top;spacingTop=0;glass=0;sketch=0;spacing=8;fontStyle=1;" parent="1" vertex="1">
          <mxGeometry x="362" y="889.5" width="982" height="748.5" as="geometry" />
        </mxCell>
        <mxCell id="7B-5MxKFfp5NG75ATEqm-23" value="传输类设备" style="rounded=0;whiteSpace=wrap;html=1;glass=0;fontSize=15;fillColor=#B3B3B3;align=left;verticalAlign=top;" parent="1" vertex="1">
          <mxGeometry x="610" y="1260" width="190" height="246" as="geometry" />
        </mxCell>
        <mxCell id="7B-5MxKFfp5NG75ATEqm-122" value="&lt;font style=&quot;font-size: 16px;&quot;&gt;DWS系统&lt;/font&gt;" style="rounded=0;whiteSpace=wrap;html=1;glass=0;labelBorderColor=none;fontFamily=Helvetica;fontSize=16;fillColor=none;labelPosition=center;verticalLabelPosition=top;align=center;verticalAlign=bottom;strokeColor=#4D4D4D;shadow=0;strokeWidth=2;arcSize=3;labelBackgroundColor=none;fontStyle=1;spacing=0;spacingTop=12;dashed=1;spacingLeft=8;" parent="1" vertex="1">
          <mxGeometry x="1036" y="917" width="242" height="317" as="geometry" />
        </mxCell>
        <mxCell id="23046e2b9bb16c14-27" value="场地机房" style="rounded=0;whiteSpace=wrap;html=1;shadow=0;strokeWidth=2;fillColor=none;fontSize=18;fontColor=default;align=left;strokeColor=#4D4D4D;arcSize=3;labelPosition=center;verticalLabelPosition=middle;verticalAlign=top;glass=0;labelBorderColor=none;labelBackgroundColor=none;fontStyle=1;spacing=0;spacingTop=8;dashed=1;perimeterSpacing=0;spacingLeft=8;" parent="1" vertex="1">
          <mxGeometry x="338" y="359" width="1100" height="330" as="geometry" />
        </mxCell>
        <mxCell id="k4qEEbZ26cPBe2Ehh2oo-34" style="edgeStyle=orthogonalEdgeStyle;rounded=0;orthogonalLoop=1;jettySize=auto;html=1;entryX=0.142;entryY=0.471;entryDx=0;entryDy=0;entryPerimeter=0;fontFamily=Helvetica;fontSize=20;startArrow=block;strokeColor=default;strokeWidth=3;fillColor=default;startFill=1;endArrow=block;endFill=1;" parent="1" target="24964f25f45c63f1-5" edge="1">
          <mxGeometry relative="1" as="geometry">
            <mxPoint x="1141" y="441" as="sourcePoint" />
          </mxGeometry>
        </mxCell>
        <mxCell id="7B-5MxKFfp5NG75ATEqm-102" value="AI推理服务" style="rounded=0;whiteSpace=wrap;html=1;glass=0;fontSize=18;fillColor=#333333;strokeColor=none;fontColor=#FFFFFF;" parent="1" vertex="1">
          <mxGeometry x="1009" y="416" width="172" height="60" as="geometry" />
        </mxCell>
        <mxCell id="7B-5MxKFfp5NG75ATEqm-51" value="体积测量模块" style="whiteSpace=wrap;html=1;glass=0;fontSize=15;fillColor=none;labelPosition=center;verticalLabelPosition=middle;align=left;verticalAlign=middle;strokeColor=none;fontStyle=1" parent="1" vertex="1">
          <mxGeometry x="1048.2" y="1125" width="175" height="26" as="geometry" />
        </mxCell>
        <mxCell id="7B-5MxKFfp5NG75ATEqm-52" value="控制&amp;amp;状态模块" style="rounded=0;whiteSpace=wrap;html=1;glass=0;fontSize=14;fillColor=#D2D2D2;strokeColor=none;labelBackgroundColor=none;" parent="1" vertex="1">
          <mxGeometry x="1049" y="1153" width="120" height="60" as="geometry" />
        </mxCell>
        <mxCell id="7B-5MxKFfp5NG75ATEqm-54" value="图像模块" style="rounded=0;whiteSpace=wrap;html=1;glass=0;fontSize=14;fillColor=#D2D2D2;strokeColor=none;labelBackgroundColor=none;" parent="1" vertex="1">
          <mxGeometry x="1179" y="1153" width="80" height="60" as="geometry" />
        </mxCell>
        <mxCell id="7B-5MxKFfp5NG75ATEqm-72" value="安检机系统" style="whiteSpace=wrap;html=1;glass=0;fontSize=16;fillColor=none;labelPosition=center;verticalLabelPosition=top;align=center;verticalAlign=bottom;strokeColor=#4D4D4D;rounded=0;shadow=0;strokeWidth=2;arcSize=3;labelBorderColor=none;labelBackgroundColor=none;fontStyle=1;spacing=0;spacingTop=12;dashed=1;spacingLeft=8;" parent="1" vertex="1">
          <mxGeometry x="1034.2" y="1274" width="245.8" height="95" as="geometry" />
        </mxCell>
        <mxCell id="7B-5MxKFfp5NG75ATEqm-73" value="控制&amp;amp;状态模块" style="rounded=0;whiteSpace=wrap;html=1;glass=0;fontSize=14;fillColor=#D2D2D2;strokeColor=none;labelBackgroundColor=none;" parent="1" vertex="1">
          <mxGeometry x="1049" y="1289" width="120" height="60" as="geometry" />
        </mxCell>
        <mxCell id="7B-5MxKFfp5NG75ATEqm-75" value="图像模块" style="rounded=0;whiteSpace=wrap;html=1;glass=0;fontSize=14;fillColor=#D2D2D2;strokeColor=none;labelBackgroundColor=none;" parent="1" vertex="1">
          <mxGeometry x="1179" y="1289" width="80" height="60" as="geometry" />
        </mxCell>
        <mxCell id="7B-5MxKFfp5NG75ATEqm-78" value="灰度仪系统" style="whiteSpace=wrap;html=1;glass=0;fontSize=16;fillColor=none;labelPosition=center;verticalLabelPosition=top;align=center;verticalAlign=bottom;strokeColor=#4D4D4D;rounded=0;shadow=0;strokeWidth=2;arcSize=3;labelBorderColor=none;labelBackgroundColor=none;fontStyle=1;spacing=0;spacingTop=12;dashed=1;spacingLeft=8;" parent="1" vertex="1">
          <mxGeometry x="1034.2" y="1410" width="248.8" height="90" as="geometry" />
        </mxCell>
        <mxCell id="7B-5MxKFfp5NG75ATEqm-79" value="控制&amp;amp;状态模块" style="rounded=0;whiteSpace=wrap;html=1;glass=0;fontSize=14;fillColor=#D2D2D2;strokeColor=none;labelBackgroundColor=none;" parent="1" vertex="1">
          <mxGeometry x="1049" y="1423" width="120" height="60" as="geometry" />
        </mxCell>
        <mxCell id="7B-5MxKFfp5NG75ATEqm-81" value="图像模块" style="rounded=0;whiteSpace=wrap;html=1;glass=0;fontSize=14;fillColor=#D2D2D2;strokeColor=none;labelBackgroundColor=none;" parent="1" vertex="1">
          <mxGeometry x="1179" y="1423" width="80" height="60" as="geometry" />
        </mxCell>
        <mxCell id="7B-5MxKFfp5NG75ATEqm-43" value="称重模块" style="whiteSpace=wrap;html=1;glass=0;fontSize=14;fillColor=none;labelPosition=center;verticalLabelPosition=middle;align=left;verticalAlign=middle;strokeColor=none;fontStyle=1" parent="1" vertex="1">
          <mxGeometry x="1048.2" y="1021" width="153.2" height="21" as="geometry" />
        </mxCell>
        <mxCell id="7B-5MxKFfp5NG75ATEqm-44" value="控制&amp;amp;状态模块" style="rounded=0;whiteSpace=wrap;html=1;glass=0;fontSize=14;fillColor=#D2D2D2;strokeColor=none;labelBackgroundColor=none;" parent="1" vertex="1">
          <mxGeometry x="1049" y="1049" width="120" height="60" as="geometry" />
        </mxCell>
        <mxCell id="7B-5MxKFfp5NG75ATEqm-46" value="图像模块" style="rounded=0;whiteSpace=wrap;html=1;glass=0;fontSize=14;fillColor=#D2D2D2;strokeColor=none;labelBackgroundColor=none;" parent="1" vertex="1">
          <mxGeometry x="1179" y="1049" width="80" height="60" as="geometry" />
        </mxCell>
        <mxCell id="7B-5MxKFfp5NG75ATEqm-35" value="成像模块" style="whiteSpace=wrap;html=1;glass=0;fontSize=14;fillColor=none;labelPosition=center;verticalLabelPosition=middle;align=left;verticalAlign=middle;strokeColor=none;fontStyle=1" parent="1" vertex="1">
          <mxGeometry x="1048.2" y="923" width="175" height="21" as="geometry" />
        </mxCell>
        <mxCell id="7B-5MxKFfp5NG75ATEqm-36" value="控制&amp;amp;状态模块" style="rounded=0;whiteSpace=wrap;html=1;glass=0;fontSize=14;fillColor=#D2D2D2;strokeColor=none;labelBackgroundColor=none;" parent="1" vertex="1">
          <mxGeometry x="1049" y="950" width="120" height="60" as="geometry" />
        </mxCell>
        <mxCell id="7B-5MxKFfp5NG75ATEqm-39" value="图像模块" style="rounded=0;whiteSpace=wrap;html=1;glass=0;fontSize=14;fillColor=#D2D2D2;strokeColor=none;labelBackgroundColor=none;" parent="1" vertex="1">
          <mxGeometry x="1179" y="950" width="80" height="60" as="geometry" />
        </mxCell>
        <mxCell id="7B-5MxKFfp5NG75ATEqm-24" value="&lt;div style=&quot;&quot;&gt;分拣类设备&lt;/div&gt;" style="rounded=0;whiteSpace=wrap;html=1;glass=0;fontSize=16;fillColor=none;align=center;verticalAlign=bottom;horizontal=1;strokeColor=#4D4D4D;labelBorderColor=none;shadow=0;strokeWidth=2;arcSize=3;labelBackgroundColor=none;fontStyle=1;spacing=0;spacingTop=12;dashed=1;spacingLeft=8;labelPosition=center;verticalLabelPosition=top;" parent="1" vertex="1">
          <mxGeometry x="424" y="1259" width="108" height="274" as="geometry" />
        </mxCell>
        <mxCell id="k4qEEbZ26cPBe2Ehh2oo-99" value="主控系统" style="whiteSpace=wrap;html=1;rounded=0;shadow=0;strokeWidth=2;fontSize=16;align=left;arcSize=3;verticalAlign=top;spacingTop=0;glass=0;sketch=0;strokeColor=none;spacing=8;fontStyle=1" parent="1" vertex="1">
          <mxGeometry x="361" y="770" width="979" height="100" as="geometry" />
        </mxCell>
        <mxCell id="k4qEEbZ26cPBe2Ehh2oo-1" value="&lt;b style=&quot;font-size: 24px;&quot;&gt;&amp;nbsp; 总部中心&lt;/b&gt;" style="whiteSpace=wrap;html=1;rounded=0;shadow=0;strokeColor=none;strokeWidth=2;fillColor=#f1f1f1;fontSize=24;fontColor=#333333;align=left;arcSize=3;verticalAlign=top;spacingTop=4;glass=0;sketch=0;" parent="1" vertex="1">
          <mxGeometry x="280" y="100" width="1190" height="170" as="geometry" />
        </mxCell>
        <mxCell id="k4qEEbZ26cPBe2Ehh2oo-23" style="edgeStyle=orthogonalEdgeStyle;rounded=0;orthogonalLoop=1;jettySize=auto;html=1;fontFamily=Helvetica;fontSize=15;strokeWidth=3;fillColor=default;startArrow=block;strokeColor=#333333;exitX=0.5;exitY=0;exitDx=0;exitDy=0;" parent="1" source="7B-5MxKFfp5NG75ATEqm-106" target="k4qEEbZ26cPBe2Ehh2oo-1" edge="1">
          <mxGeometry relative="1" as="geometry">
            <mxPoint x="638.8" y="369.9999999999999" as="sourcePoint" />
            <mxPoint x="463.7499999999998" y="233.5" as="targetPoint" />
            <Array as="points">
              <mxPoint x="620" y="400" />
              <mxPoint x="620" y="340" />
              <mxPoint x="500" y="340" />
            </Array>
          </mxGeometry>
        </mxCell>
        <mxCell id="k4qEEbZ26cPBe2Ehh2oo-24" value="MQTT/HTTP1.1" style="edgeLabel;html=1;align=center;verticalAlign=middle;resizable=0;points=[];fontSize=15;fontFamily=Helvetica;" parent="k4qEEbZ26cPBe2Ehh2oo-23" vertex="1" connectable="0">
          <mxGeometry x="-0.28" y="2" relative="1" as="geometry">
            <mxPoint x="-15" y="-4" as="offset" />
          </mxGeometry>
        </mxCell>
        <mxCell id="k4qEEbZ26cPBe2Ehh2oo-6" value="" style="edgeStyle=orthogonalEdgeStyle;rounded=0;orthogonalLoop=1;jettySize=auto;html=1;fontSize=15;fillColor=default;strokeWidth=3;exitX=0.5;exitY=0;exitDx=0;exitDy=0;strokeColor=#333333;startArrow=block;entryX=0.458;entryY=1.008;entryDx=0;entryDy=0;entryPerimeter=0;" parent="1" source="7B-5MxKFfp5NG75ATEqm-107" target="7B-5MxKFfp5NG75ATEqm-116" edge="1">
          <mxGeometry relative="1" as="geometry">
            <mxPoint x="444" y="369.7599999999999" as="sourcePoint" />
            <mxPoint x="444" y="233.5" as="targetPoint" />
            <Array as="points">
              <mxPoint x="427" y="380" />
              <mxPoint x="448" y="380" />
            </Array>
          </mxGeometry>
        </mxCell>
        <mxCell id="k4qEEbZ26cPBe2Ehh2oo-7" value="MQTT/HTTP1.1" style="edgeLabel;html=1;align=center;verticalAlign=middle;resizable=0;points=[];fontSize=15;fontFamily=Helvetica;" parent="k4qEEbZ26cPBe2Ehh2oo-6" vertex="1" connectable="0">
          <mxGeometry x="-0.153" y="1" relative="1" as="geometry">
            <mxPoint x="1" y="8" as="offset" />
          </mxGeometry>
        </mxCell>
        <mxCell id="k4qEEbZ26cPBe2Ehh2oo-33" style="edgeStyle=orthogonalEdgeStyle;rounded=0;orthogonalLoop=1;jettySize=auto;html=1;fontFamily=Helvetica;fontSize=20;startArrow=block;strokeColor=default;strokeWidth=3;fillColor=default;startFill=1;endArrow=block;endFill=1;" parent="1" source="24964f25f45c63f1-5" edge="1">
          <mxGeometry relative="1" as="geometry">
            <Array as="points" />
            <mxPoint x="1266" y="582" as="targetPoint" />
          </mxGeometry>
        </mxCell>
        <mxCell id="24964f25f45c63f1-5" value="存储网关" style="shadow=0;dashed=0;html=1;strokeColor=none;shape=mxgraph.mscae.enterprise.gateway;fillColor=#D2D2D2;rounded=0;fontSize=20;fontColor=#000000;align=center;labelPosition=center;verticalLabelPosition=top;verticalAlign=bottom;labelBackgroundColor=default;" parent="1" vertex="1">
          <mxGeometry x="1241" y="420" width="50" height="45.11" as="geometry" />
        </mxCell>
        <mxCell id="23046e2b9bb16c14-113" value="&lt;p class=&quot;MsoNormal&quot;&gt;&lt;font color=&quot;#000000&quot; style=&quot;font-size: 30px&quot;&gt;智能分拣线数据传输管道示意图&lt;/font&gt;&lt;/p&gt;" style="text;strokeColor=none;fillColor=none;html=1;fontSize=24;fontStyle=1;verticalAlign=middle;align=center;rounded=0;shadow=0;fontColor=#FFFFFF;" parent="1" vertex="1">
          <mxGeometry x="122" y="40" width="1510" height="40" as="geometry" />
        </mxCell>
        <mxCell id="k4qEEbZ26cPBe2Ehh2oo-62" style="edgeStyle=orthogonalEdgeStyle;rounded=0;orthogonalLoop=1;jettySize=auto;html=1;fontFamily=Helvetica;fontSize=12;fontColor=#000000;startArrow=block;strokeColor=default;strokeWidth=3;fillColor=default;entryX=0;entryY=0.5;entryDx=0;entryDy=0;exitX=1;exitY=0.5;exitDx=0;exitDy=0;startFill=1;endArrow=block;endFill=1;" parent="1" source="7B-5MxKFfp5NG75ATEqm-107" target="7B-5MxKFfp5NG75ATEqm-106" edge="1">
          <mxGeometry relative="1" as="geometry">
            <mxPoint x="489.9999298093567" y="440.8571428571429" as="sourcePoint" />
            <mxPoint x="594.8000039029971" y="440.8571428571429" as="targetPoint" />
          </mxGeometry>
        </mxCell>
        <mxCell id="k4qEEbZ26cPBe2Ehh2oo-63" value="TCP/HTTP1.1" style="edgeLabel;align=center;verticalAlign=middle;resizable=0;points=[];fontSize=13;fontFamily=Helvetica;fontColor=#000000;" parent="k4qEEbZ26cPBe2Ehh2oo-62" vertex="1" connectable="0">
          <mxGeometry x="-0.2632" relative="1" as="geometry">
            <mxPoint x="13" y="-55" as="offset" />
          </mxGeometry>
        </mxCell>
        <mxCell id="k4qEEbZ26cPBe2Ehh2oo-31" value="" style="edgeStyle=orthogonalEdgeStyle;rounded=0;orthogonalLoop=1;jettySize=auto;html=1;fontFamily=Helvetica;fontSize=20;startArrow=block;strokeColor=default;strokeWidth=3;fillColor=default;entryX=0;entryY=0.5;entryDx=0;entryDy=0;startFill=1;endArrow=block;endFill=1;exitX=1;exitY=0.5;exitDx=0;exitDy=0;" parent="1" source="7B-5MxKFfp5NG75ATEqm-106" target="7B-5MxKFfp5NG75ATEqm-104" edge="1">
          <mxGeometry relative="1" as="geometry">
            <mxPoint x="691" y="441" as="sourcePoint" />
            <mxPoint x="802.0000412254228" y="440.7142857142858" as="targetPoint" />
          </mxGeometry>
        </mxCell>
        <mxCell id="k4qEEbZ26cPBe2Ehh2oo-64" value="TCP/HTTP1.1" style="edgeLabel;html=1;align=center;verticalAlign=middle;resizable=0;points=[];fontSize=13;fontFamily=Helvetica;fontColor=#000000;" parent="k4qEEbZ26cPBe2Ehh2oo-31" vertex="1" connectable="0">
          <mxGeometry x="-0.3042" y="-3" relative="1" as="geometry">
            <mxPoint x="19" y="-58" as="offset" />
          </mxGeometry>
        </mxCell>
        <mxCell id="k4qEEbZ26cPBe2Ehh2oo-138" value="" style="edgeStyle=orthogonalEdgeStyle;rounded=0;orthogonalLoop=1;jettySize=auto;html=0;labelBorderColor=none;fontFamily=Helvetica;fontSize=20;fontColor=#000000;startArrow=block;startFill=1;endArrow=block;endFill=1;strokeColor=default;strokeWidth=3;fillColor=default;entryX=1;entryY=0.5;entryDx=0;entryDy=0;exitX=0;exitY=0.5;exitDx=0;exitDy=0;" parent="1" source="7B-5MxKFfp5NG75ATEqm-102" target="7B-5MxKFfp5NG75ATEqm-104" edge="1">
          <mxGeometry relative="1" as="geometry">
            <mxPoint x="1011" y="441" as="sourcePoint" />
            <mxPoint x="891.999958774577" y="440.7142857142858" as="targetPoint" />
          </mxGeometry>
        </mxCell>
        <mxCell id="k4qEEbZ26cPBe2Ehh2oo-142" value="TCP/HTTP1.1" style="edgeLabel;align=center;verticalAlign=middle;resizable=0;points=[];fontSize=13;fontFamily=Helvetica;fontColor=#000000;" parent="k4qEEbZ26cPBe2Ehh2oo-138" vertex="1" connectable="0">
          <mxGeometry x="-0.2323" y="-1" relative="1" as="geometry">
            <mxPoint x="1" y="-54" as="offset" />
          </mxGeometry>
        </mxCell>
        <mxCell id="k4qEEbZ26cPBe2Ehh2oo-149" style="edgeStyle=orthogonalEdgeStyle;rounded=0;orthogonalLoop=1;jettySize=auto;html=0;labelBorderColor=none;fontFamily=Helvetica;fontSize=12;fontColor=#000000;startArrow=block;startFill=1;endArrow=block;endFill=1;strokeColor=#333333;strokeWidth=3;fillColor=default;exitX=0.75;exitY=0;exitDx=0;exitDy=0;entryX=0.75;entryY=0;entryDx=0;entryDy=0;" parent="1" source="7B-5MxKFfp5NG75ATEqm-102" target="7B-5MxKFfp5NG75ATEqm-106" edge="1">
          <mxGeometry relative="1" as="geometry">
            <Array as="points">
              <mxPoint x="1106" y="340" />
              <mxPoint x="664" y="340" />
            </Array>
            <mxPoint x="1045" y="374.45000000000005" as="sourcePoint" />
            <mxPoint x="710" y="390" as="targetPoint" />
          </mxGeometry>
        </mxCell>
        <mxCell id="k4qEEbZ26cPBe2Ehh2oo-150" value="HTTP1.1/TCP" style="edgeLabel;align=center;verticalAlign=middle;resizable=0;points=[];fontSize=15;fontFamily=Helvetica;fontColor=#000000;" parent="k4qEEbZ26cPBe2Ehh2oo-149" vertex="1" connectable="0">
          <mxGeometry x="0.4776" y="-5" relative="1" as="geometry">
            <mxPoint as="offset" />
          </mxGeometry>
        </mxCell>
        <mxCell id="k4qEEbZ26cPBe2Ehh2oo-32" style="edgeStyle=orthogonalEdgeStyle;rounded=0;orthogonalLoop=1;jettySize=auto;html=1;entryX=0.5;entryY=1;entryDx=0;entryDy=0;fontFamily=Helvetica;fontSize=20;startArrow=block;strokeColor=#333333;strokeWidth=3;fillColor=default;exitX=0.5;exitY=0;exitDx=0;exitDy=0;" parent="1" source="7B-5MxKFfp5NG75ATEqm-104" target="7B-5MxKFfp5NG75ATEqm-117" edge="1">
          <mxGeometry relative="1" as="geometry">
            <mxPoint x="846" y="369.7600000000001" as="sourcePoint" />
            <mxPoint x="705.5" y="233.5" as="targetPoint" />
          </mxGeometry>
        </mxCell>
        <mxCell id="k4qEEbZ26cPBe2Ehh2oo-60" value="HTTP1.1" style="edgeLabel;align=center;verticalAlign=middle;resizable=0;points=[];fontSize=15;fontFamily=Helvetica;" parent="k4qEEbZ26cPBe2Ehh2oo-32" vertex="1" connectable="0">
          <mxGeometry x="0.087" relative="1" as="geometry">
            <mxPoint as="offset" />
          </mxGeometry>
        </mxCell>
        <mxCell id="k4qEEbZ26cPBe2Ehh2oo-43" value="" style="edgeStyle=orthogonalEdgeStyle;rounded=0;orthogonalLoop=1;jettySize=auto;fontFamily=Helvetica;fontSize=20;startArrow=block;strokeColor=none;strokeWidth=3;fillColor=#D2D2D2;horizontal=1;fontStyle=0;labelBorderColor=none;startFill=1;endArrow=none;endFill=0;shape=flexArrow;width=24;labelBackgroundColor=none;" parent="1" edge="1">
          <mxGeometry relative="1" as="geometry">
            <mxPoint x="578" y="870" as="sourcePoint" />
            <mxPoint x="578.0000000000005" y="1530" as="targetPoint" />
            <Array as="points">
              <mxPoint x="578" y="1200" />
              <mxPoint x="578" y="1200" />
            </Array>
          </mxGeometry>
        </mxCell>
        <mxCell id="k4qEEbZ26cPBe2Ehh2oo-71" value="通讯接口（ProfiNET/CAN/RS485/EtherCAT/TCP/IP/其他总线)）" style="edgeLabel;html=1;align=center;verticalAlign=top;resizable=0;points=[];fontSize=14;fontFamily=Helvetica;fontColor=default;labelPosition=center;verticalLabelPosition=top;horizontal=0;rotation=-180;labelBackgroundColor=none;" parent="k4qEEbZ26cPBe2Ehh2oo-43" vertex="1" connectable="0">
          <mxGeometry relative="1" as="geometry">
            <mxPoint x="15" y="-20" as="offset" />
          </mxGeometry>
        </mxCell>
        <mxCell id="k4qEEbZ26cPBe2Ehh2oo-113" style="edgeStyle=orthogonalEdgeStyle;rounded=0;orthogonalLoop=1;jettySize=auto;html=0;entryX=0.637;entryY=-0.076;entryDx=0;entryDy=0;entryPerimeter=0;labelBorderColor=none;fontFamily=Helvetica;fontSize=15;fontColor=#000000;startArrow=block;startFill=1;endArrow=block;endFill=1;strokeColor=default;strokeWidth=3;fillColor=default;exitX=0.5;exitY=1;exitDx=0;exitDy=0;" parent="1" source="7B-5MxKFfp5NG75ATEqm-106" edge="1">
          <mxGeometry relative="1" as="geometry">
            <mxPoint x="638.8" y="479.75999999999976" as="sourcePoint" />
            <mxPoint x="638.2470000000001" y="766.9599999999998" as="targetPoint" />
            <Array as="points">
              <mxPoint x="638" y="470" />
            </Array>
          </mxGeometry>
        </mxCell>
        <mxCell id="k4qEEbZ26cPBe2Ehh2oo-114" value="TCP" style="edgeLabel;html=1;align=center;verticalAlign=middle;resizable=0;points=[];fontSize=14;fontFamily=Helvetica;fontColor=#000000;spacing=0;" parent="k4qEEbZ26cPBe2Ehh2oo-113" vertex="1" connectable="0">
          <mxGeometry x="0.2825" y="-3" relative="1" as="geometry">
            <mxPoint x="1" y="-44" as="offset" />
          </mxGeometry>
        </mxCell>
        <mxCell id="k4qEEbZ26cPBe2Ehh2oo-81" style="edgeStyle=orthogonalEdgeStyle;shape=flexArrow;rounded=0;orthogonalLoop=1;jettySize=auto;html=0;labelBorderColor=none;fontFamily=Helvetica;fontSize=20;fontColor=default;startArrow=none;startFill=0;endArrow=block;endFill=0;strokeColor=none;strokeWidth=3;fillColor=#D2D2D2;width=25;entryX=0.5;entryY=0;entryDx=0;entryDy=0;entryPerimeter=0;exitX=0.5;exitY=0;exitDx=0;exitDy=0;exitPerimeter=0;labelBackgroundColor=none;fontStyle=0;" parent="1" edge="1">
          <mxGeometry relative="1" as="geometry">
            <mxPoint x="993" y="1530" as="sourcePoint" />
            <mxPoint x="993" y="869" as="targetPoint" />
            <Array as="points">
              <mxPoint x="1000" y="1200" />
              <mxPoint x="1000" y="1200" />
            </Array>
          </mxGeometry>
        </mxCell>
        <mxCell id="GAwpcM4JLsc9GK7bvJ3L-2" value="TCP/IP" style="edgeLabel;html=1;align=center;verticalAlign=middle;resizable=0;points=[];fontSize=14;fontFamily=Helvetica;fontColor=default;" vertex="1" connectable="0" parent="k4qEEbZ26cPBe2Ehh2oo-81">
          <mxGeometry x="0.0222" y="-1" relative="1" as="geometry">
            <mxPoint as="offset" />
          </mxGeometry>
        </mxCell>
        <mxCell id="k4qEEbZ26cPBe2Ehh2oo-88" style="edgeStyle=orthogonalEdgeStyle;shape=flexArrow;rounded=0;orthogonalLoop=1;jettySize=auto;html=0;exitX=0.5;exitY=1;exitDx=0;exitDy=0;labelBorderColor=none;fontFamily=Helvetica;fontSize=15;fontColor=#000000;startArrow=block;startFill=0;endArrow=block;endFill=0;strokeColor=default;strokeWidth=3;fillColor=default;" parent="1" edge="1">
          <mxGeometry relative="1" as="geometry">
            <mxPoint x="933.4200000000001" y="1049.5" as="sourcePoint" />
            <mxPoint x="933.4200000000001" y="1049.5" as="targetPoint" />
          </mxGeometry>
        </mxCell>
        <mxCell id="k4qEEbZ26cPBe2Ehh2oo-110" value="状态显示" style="whiteSpace=wrap;html=1;rounded=0;shadow=0;strokeColor=none;strokeWidth=2;fillColor=#d5e8d4;fontSize=14;align=center;arcSize=3;verticalAlign=middle;spacingTop=0;glass=0;sketch=0;spacing=0;" parent="1" vertex="1">
          <mxGeometry x="362" y="497" width="129" height="30" as="geometry" />
        </mxCell>
        <mxCell id="k4qEEbZ26cPBe2Ehh2oo-111" value="状态控制" style="whiteSpace=wrap;html=1;rounded=0;shadow=0;strokeColor=none;strokeWidth=2;fillColor=#d5e8d4;fontSize=14;align=center;arcSize=3;verticalAlign=middle;spacingTop=0;glass=0;sketch=0;spacing=0;" parent="1" vertex="1">
          <mxGeometry x="361" y="540" width="130" height="30" as="geometry" />
        </mxCell>
        <mxCell id="k4qEEbZ26cPBe2Ehh2oo-112" value="主控机连接" style="whiteSpace=wrap;html=1;rounded=0;shadow=0;strokeColor=none;strokeWidth=2;fillColor=#d5e8d4;fontSize=14;align=center;arcSize=3;verticalAlign=middle;spacingTop=0;glass=0;sketch=0;spacing=0;" parent="1" vertex="1">
          <mxGeometry x="541" y="497" width="84.2" height="30" as="geometry" />
        </mxCell>
        <mxCell id="k4qEEbZ26cPBe2Ehh2oo-115" value="状态获取" style="whiteSpace=wrap;html=1;rounded=0;shadow=0;strokeColor=none;strokeWidth=2;fillColor=#d5e8d4;fontSize=14;align=center;arcSize=3;verticalAlign=middle;spacingTop=0;glass=0;sketch=0;spacing=0;" parent="1" vertex="1">
          <mxGeometry x="651" y="497" width="90" height="30" as="geometry" />
        </mxCell>
        <mxCell id="k4qEEbZ26cPBe2Ehh2oo-116" value="控制信令" style="whiteSpace=wrap;html=1;rounded=0;shadow=0;strokeColor=none;strokeWidth=2;fillColor=#d5e8d4;fontSize=14;align=center;arcSize=3;verticalAlign=middle;spacingTop=0;glass=0;sketch=0;spacing=0;" parent="1" vertex="1">
          <mxGeometry x="651" y="541" width="90" height="30" as="geometry" />
        </mxCell>
        <mxCell id="k4qEEbZ26cPBe2Ehh2oo-117" value="信息分发" style="whiteSpace=wrap;html=1;rounded=0;shadow=0;strokeColor=none;strokeWidth=2;fillColor=#d5e8d4;fontSize=14;align=center;arcSize=3;verticalAlign=middle;spacingTop=0;glass=0;sketch=0;spacing=0;" parent="1" vertex="1">
          <mxGeometry x="541" y="541" width="84.2" height="30" as="geometry" />
        </mxCell>
        <mxCell id="k4qEEbZ26cPBe2Ehh2oo-121" value="分拣计划&lt;br style=&quot;font-size: 14px;&quot;&gt;控制策略" style="whiteSpace=wrap;html=1;rounded=0;shadow=0;strokeColor=none;strokeWidth=2;fillColor=#d5e8d4;fontSize=14;align=center;arcSize=3;verticalAlign=middle;spacingTop=0;glass=0;sketch=0;spacing=0;" parent="1" vertex="1">
          <mxGeometry x="788" y="500" width="84.2" height="46" as="geometry" />
        </mxCell>
        <mxCell id="k4qEEbZ26cPBe2Ehh2oo-126" value="版本升级" style="whiteSpace=wrap;html=1;rounded=0;shadow=0;strokeColor=none;strokeWidth=2;fillColor=#d5e8d4;fontSize=14;align=center;arcSize=3;verticalAlign=top;spacingTop=4;glass=0;sketch=0;spacing=0;" parent="1" vertex="1">
          <mxGeometry x="881" y="559" width="84.2" height="30" as="geometry" />
        </mxCell>
        <mxCell id="k4qEEbZ26cPBe2Ehh2oo-131" value="数据统计" style="whiteSpace=wrap;html=1;rounded=0;shadow=0;strokeColor=none;strokeWidth=2;fillColor=#d5e8d4;fontSize=14;align=center;arcSize=3;verticalAlign=top;spacingTop=4;glass=0;sketch=0;spacing=0;" parent="1" vertex="1">
          <mxGeometry x="788" y="559" width="84.2" height="30" as="geometry" />
        </mxCell>
        <mxCell id="k4qEEbZ26cPBe2Ehh2oo-132" value="业务信息&lt;br style=&quot;font-size: 14px;&quot;&gt;处理" style="whiteSpace=wrap;html=1;rounded=0;shadow=0;strokeColor=none;strokeWidth=2;fillColor=#d5e8d4;fontSize=14;align=center;arcSize=3;verticalAlign=middle;spacingTop=0;glass=0;sketch=0;spacing=0;" parent="1" vertex="1">
          <mxGeometry x="881" y="500" width="84.2" height="46" as="geometry" />
        </mxCell>
        <mxCell id="k4qEEbZ26cPBe2Ehh2oo-133" value="AI推理" style="whiteSpace=wrap;html=1;rounded=0;shadow=0;strokeColor=none;strokeWidth=2;fillColor=#d5e8d4;fontSize=14;align=center;arcSize=3;verticalAlign=top;spacingTop=4;glass=0;sketch=0;spacing=0;" parent="1" vertex="1">
          <mxGeometry x="1009.0200000000001" y="500" width="84.2" height="30" as="geometry" />
        </mxCell>
        <mxCell id="k4qEEbZ26cPBe2Ehh2oo-134" value="数据统计" style="whiteSpace=wrap;html=1;rounded=0;shadow=0;strokeColor=none;strokeWidth=2;fillColor=#d5e8d4;fontSize=14;align=center;arcSize=3;verticalAlign=top;spacingTop=4;glass=0;sketch=0;spacing=0;" parent="1" vertex="1">
          <mxGeometry x="1099.5" y="500" width="81.39" height="29" as="geometry" />
        </mxCell>
        <mxCell id="k4qEEbZ26cPBe2Ehh2oo-135" value="异常告警" style="whiteSpace=wrap;html=1;rounded=0;shadow=0;strokeColor=none;strokeWidth=2;fillColor=#d5e8d4;fontSize=14;align=center;arcSize=3;verticalAlign=top;spacingTop=4;glass=0;sketch=0;spacing=0;" parent="1" vertex="1">
          <mxGeometry x="1009.0000000000001" y="535" width="84.2" height="30" as="geometry" />
        </mxCell>
        <mxCell id="k4qEEbZ26cPBe2Ehh2oo-136" value="运维监测" style="whiteSpace=wrap;html=1;rounded=0;shadow=0;strokeColor=none;strokeWidth=2;fillColor=#d5e8d4;fontSize=14;align=center;arcSize=3;verticalAlign=top;spacingTop=4;glass=0;sketch=0;spacing=0;" parent="1" vertex="1">
          <mxGeometry x="1099.5" y="535" width="81.5" height="30" as="geometry" />
        </mxCell>
        <mxCell id="k4qEEbZ26cPBe2Ehh2oo-139" style="edgeStyle=orthogonalEdgeStyle;rounded=0;orthogonalLoop=1;jettySize=auto;html=0;entryX=1.04;entryY=0.341;entryDx=0;entryDy=0;entryPerimeter=0;labelBorderColor=none;fontFamily=Helvetica;fontSize=20;fontColor=#000000;startArrow=block;startFill=1;endArrow=block;endFill=1;strokeColor=default;strokeWidth=3;fillColor=default;" parent="1" target="24964f25f45c63f1-5" edge="1">
          <mxGeometry relative="1" as="geometry">
            <Array as="points">
              <mxPoint x="1390" y="419" />
            </Array>
            <mxPoint x="1390" y="1530" as="sourcePoint" />
          </mxGeometry>
        </mxCell>
        <mxCell id="k4qEEbZ26cPBe2Ehh2oo-140" value="&lt;span style=&quot;font-size: 15px&quot;&gt;HTTP1.1/FTP/TCP&lt;/span&gt;" style="edgeLabel;html=1;align=center;verticalAlign=middle;resizable=0;points=[];fontSize=20;fontFamily=Helvetica;fontColor=#000000;" parent="k4qEEbZ26cPBe2Ehh2oo-139" vertex="1" connectable="0">
          <mxGeometry x="-0.1228" y="-3" relative="1" as="geometry">
            <mxPoint x="-13" y="-74" as="offset" />
          </mxGeometry>
        </mxCell>
        <mxCell id="k4qEEbZ26cPBe2Ehh2oo-143" value="计划导入" style="whiteSpace=wrap;html=1;rounded=0;shadow=0;strokeColor=none;strokeWidth=2;fillColor=#9AC7BF;fontSize=14;align=center;arcSize=3;verticalAlign=top;spacingTop=0;glass=0;sketch=0;spacing=2;" parent="1" vertex="1">
          <mxGeometry x="619.9" y="222.5" width="80.1" height="30" as="geometry" />
        </mxCell>
        <mxCell id="k4qEEbZ26cPBe2Ehh2oo-144" value="计划分发" style="whiteSpace=wrap;html=1;rounded=0;shadow=0;strokeColor=none;strokeWidth=2;fillColor=#9AC7BF;fontSize=14;align=center;arcSize=3;verticalAlign=top;spacingTop=0;glass=0;sketch=0;spacing=2;" parent="1" vertex="1">
          <mxGeometry x="730" y="222.5" width="70.5" height="30" as="geometry" />
        </mxCell>
        <mxCell id="k4qEEbZ26cPBe2Ehh2oo-145" value="功能配置" style="whiteSpace=wrap;html=1;rounded=0;shadow=0;strokeColor=none;strokeWidth=2;fillColor=#9AC7BF;fontSize=14;align=center;arcSize=3;verticalAlign=top;spacingTop=0;glass=0;sketch=0;spacing=2;" parent="1" vertex="1">
          <mxGeometry x="950.0000000000001" y="222.5" width="84.2" height="30" as="geometry" />
        </mxCell>
        <mxCell id="k4qEEbZ26cPBe2Ehh2oo-146" value="数据统计" style="whiteSpace=wrap;html=1;rounded=0;shadow=0;strokeColor=none;strokeWidth=2;fillColor=#9AC7BF;fontSize=14;align=center;arcSize=3;verticalAlign=top;spacingTop=0;glass=0;sketch=0;spacing=2;" parent="1" vertex="1">
          <mxGeometry x="1070" y="222.5" width="70" height="30" as="geometry" />
        </mxCell>
        <mxCell id="k4qEEbZ26cPBe2Ehh2oo-26" style="edgeStyle=orthogonalEdgeStyle;rounded=0;orthogonalLoop=1;jettySize=auto;html=1;fontFamily=Helvetica;fontSize=20;startArrow=block;strokeColor=#333333;strokeWidth=3;fillColor=default;exitX=0.5;exitY=0;exitDx=0;exitDy=0;entryX=0.5;entryY=1;entryDx=0;entryDy=0;" parent="1" source="7B-5MxKFfp5NG75ATEqm-102" target="7B-5MxKFfp5NG75ATEqm-118" edge="1">
          <mxGeometry relative="1" as="geometry">
            <mxPoint x="1020" y="374.45000000000005" as="sourcePoint" />
            <mxPoint x="1009" y="210" as="targetPoint" />
          </mxGeometry>
        </mxCell>
        <mxCell id="k4qEEbZ26cPBe2Ehh2oo-61" value="HTTP1.1/GRPC" style="edgeLabel;align=center;verticalAlign=middle;resizable=0;points=[];fontSize=15;fontFamily=Helvetica;labelBorderColor=none;" parent="k4qEEbZ26cPBe2Ehh2oo-26" vertex="1" connectable="0">
          <mxGeometry x="0.1631" y="-2" relative="1" as="geometry">
            <mxPoint x="-2" y="6" as="offset" />
          </mxGeometry>
        </mxCell>
        <mxCell id="7B-5MxKFfp5NG75ATEqm-31" value="" style="endArrow=block;html=1;rounded=0;fontSize=15;strokeColor=#000000;strokeWidth=2;endFill=1;startArrow=none;startFill=0;" parent="1" edge="1">
          <mxGeometry width="50" height="50" relative="1" as="geometry">
            <mxPoint x="610" y="1318" as="sourcePoint" />
            <mxPoint x="580" y="1318" as="targetPoint" />
          </mxGeometry>
        </mxCell>
        <mxCell id="7B-5MxKFfp5NG75ATEqm-33" value="" style="endArrow=block;html=1;rounded=0;fontSize=15;strokeColor=#000000;strokeWidth=2;exitX=0.994;exitY=0.37;exitDx=0;exitDy=0;exitPerimeter=0;endFill=1;startArrow=none;startFill=0;" parent="1" source="7B-5MxKFfp5NG75ATEqm-24" edge="1">
          <mxGeometry width="50" height="50" relative="1" as="geometry">
            <mxPoint x="620" y="1185" as="sourcePoint" />
            <mxPoint x="580" y="1360" as="targetPoint" />
          </mxGeometry>
        </mxCell>
        <mxCell id="7B-5MxKFfp5NG75ATEqm-41" value="" style="endArrow=block;html=1;rounded=0;fontSize=15;strokeColor=#000000;strokeWidth=2;exitX=0;exitY=0.5;exitDx=0;exitDy=0;endFill=1;" parent="1" source="7B-5MxKFfp5NG75ATEqm-36" edge="1">
          <mxGeometry width="50" height="50" relative="1" as="geometry">
            <mxPoint x="940" y="1020" as="sourcePoint" />
            <mxPoint x="1000" y="980" as="targetPoint" />
          </mxGeometry>
        </mxCell>
        <mxCell id="7B-5MxKFfp5NG75ATEqm-42" value="" style="endArrow=block;html=1;rounded=0;fontSize=15;strokeColor=#000000;strokeWidth=2;exitX=1;exitY=0.5;exitDx=0;exitDy=0;endFill=1;" parent="1" source="7B-5MxKFfp5NG75ATEqm-39" edge="1">
          <mxGeometry width="50" height="50" relative="1" as="geometry">
            <mxPoint x="1077" y="980" as="sourcePoint" />
            <mxPoint x="1390" y="980" as="targetPoint" />
          </mxGeometry>
        </mxCell>
        <mxCell id="7B-5MxKFfp5NG75ATEqm-49" value="" style="endArrow=block;html=1;rounded=0;fontSize=15;strokeColor=#000000;strokeWidth=2;exitX=0;exitY=0.5;exitDx=0;exitDy=0;endFill=1;" parent="1" source="7B-5MxKFfp5NG75ATEqm-44" edge="1">
          <mxGeometry width="50" height="50" relative="1" as="geometry">
            <mxPoint x="1077" y="944" as="sourcePoint" />
            <mxPoint x="1015" y="1079" as="targetPoint" />
          </mxGeometry>
        </mxCell>
        <mxCell id="7B-5MxKFfp5NG75ATEqm-50" value="" style="endArrow=block;html=1;rounded=0;fontSize=15;strokeColor=#000000;strokeWidth=2;exitX=1;exitY=0.5;exitDx=0;exitDy=0;endFill=1;" parent="1" source="7B-5MxKFfp5NG75ATEqm-46" edge="1">
          <mxGeometry width="50" height="50" relative="1" as="geometry">
            <mxPoint x="1228" y="945" as="sourcePoint" />
            <mxPoint x="1390" y="1079" as="targetPoint" />
          </mxGeometry>
        </mxCell>
        <mxCell id="7B-5MxKFfp5NG75ATEqm-56" value="" style="endArrow=block;html=1;rounded=0;fontSize=15;strokeColor=#000000;strokeWidth=2;exitX=0;exitY=0.5;exitDx=0;exitDy=0;endFill=1;" parent="1" source="7B-5MxKFfp5NG75ATEqm-52" edge="1">
          <mxGeometry width="50" height="50" relative="1" as="geometry">
            <mxPoint x="1077" y="1058" as="sourcePoint" />
            <mxPoint x="1000" y="1208" as="targetPoint" />
          </mxGeometry>
        </mxCell>
        <mxCell id="7B-5MxKFfp5NG75ATEqm-57" value="" style="endArrow=block;html=1;rounded=0;fontSize=15;strokeColor=#000000;strokeWidth=2;exitX=1;exitY=0.5;exitDx=0;exitDy=0;endFill=1;" parent="1" edge="1">
          <mxGeometry width="50" height="50" relative="1" as="geometry">
            <mxPoint x="1218" y="1181.9999999999998" as="sourcePoint" />
            <mxPoint x="1390" y="1182" as="targetPoint" />
          </mxGeometry>
        </mxCell>
        <mxCell id="7B-5MxKFfp5NG75ATEqm-77" value="" style="endArrow=block;html=1;rounded=0;fontSize=15;strokeColor=#000000;strokeWidth=2;exitX=1;exitY=0.5;exitDx=0;exitDy=0;endFill=1;" parent="1" source="7B-5MxKFfp5NG75ATEqm-75" edge="1">
          <mxGeometry width="50" height="50" relative="1" as="geometry">
            <mxPoint x="1226" y="1185" as="sourcePoint" />
            <mxPoint x="1390" y="1319" as="targetPoint" />
          </mxGeometry>
        </mxCell>
        <mxCell id="7B-5MxKFfp5NG75ATEqm-83" value="" style="endArrow=block;html=1;rounded=0;fontSize=15;strokeColor=#000000;strokeWidth=2;exitX=1;exitY=0.5;exitDx=0;exitDy=0;endFill=1;" parent="1" source="7B-5MxKFfp5NG75ATEqm-81" edge="1">
          <mxGeometry width="50" height="50" relative="1" as="geometry">
            <mxPoint x="1224" y="1319" as="sourcePoint" />
            <mxPoint x="1390" y="1453" as="targetPoint" />
          </mxGeometry>
        </mxCell>
        <mxCell id="7B-5MxKFfp5NG75ATEqm-89" value="" style="endArrow=block;html=1;rounded=0;fontSize=15;strokeColor=#000000;strokeWidth=2;endFill=1;" parent="1" edge="1">
          <mxGeometry width="50" height="50" relative="1" as="geometry">
            <mxPoint x="940" y="1223" as="sourcePoint" />
            <mxPoint x="990" y="1223" as="targetPoint" />
          </mxGeometry>
        </mxCell>
        <mxCell id="7B-5MxKFfp5NG75ATEqm-90" value="" style="endArrow=block;html=1;rounded=0;fontSize=15;strokeColor=#000000;strokeWidth=2;endFill=1;" parent="1" edge="1">
          <mxGeometry width="50" height="50" relative="1" as="geometry">
            <mxPoint x="941" y="1005" as="sourcePoint" />
            <mxPoint x="990" y="1005" as="targetPoint" />
          </mxGeometry>
        </mxCell>
        <mxCell id="7B-5MxKFfp5NG75ATEqm-91" value="" style="endArrow=block;html=1;rounded=0;fontSize=15;strokeColor=#000000;strokeWidth=2;exitX=1;exitY=0.5;exitDx=0;exitDy=0;endFill=1;" parent="1" source="7B-5MxKFfp5NG75ATEqm-99" edge="1">
          <mxGeometry width="50" height="50" relative="1" as="geometry">
            <mxPoint x="940.0000000000002" y="1089.9999999999998" as="sourcePoint" />
            <mxPoint x="990" y="1100" as="targetPoint" />
          </mxGeometry>
        </mxCell>
        <mxCell id="7B-5MxKFfp5NG75ATEqm-93" value="逻辑处理" style="rounded=0;whiteSpace=wrap;html=1;glass=0;fontSize=18;fillColor=#333333;strokeColor=none;fontColor=#FFFFFF;" parent="1" vertex="1">
          <mxGeometry x="522" y="790" width="120" height="60" as="geometry" />
        </mxCell>
        <mxCell id="7B-5MxKFfp5NG75ATEqm-94" value="业务信息处理" style="rounded=0;whiteSpace=wrap;html=1;glass=0;fontSize=18;fillColor=#333333;strokeColor=none;fontColor=#FFFFFF;" parent="1" vertex="1">
          <mxGeometry x="680" y="790" width="138.4" height="60" as="geometry" />
        </mxCell>
        <mxCell id="7B-5MxKFfp5NG75ATEqm-95" value="状态收集" style="rounded=0;whiteSpace=wrap;html=1;glass=0;fontSize=18;fillColor=#333333;strokeColor=none;fontColor=#FFFFFF;" parent="1" vertex="1">
          <mxGeometry x="860" y="790" width="137" height="60" as="geometry" />
        </mxCell>
        <mxCell id="7B-5MxKFfp5NG75ATEqm-96" value="统一标准接口" style="rounded=0;whiteSpace=wrap;html=1;glass=0;fontSize=18;fillColor=#333333;strokeColor=none;fontColor=#FFFFFF;" parent="1" vertex="1">
          <mxGeometry x="1040" y="790" width="140" height="60" as="geometry" />
        </mxCell>
        <mxCell id="7B-5MxKFfp5NG75ATEqm-97" value="RFID读码器" style="rounded=0;whiteSpace=wrap;html=1;glass=0;fontSize=14;fillColor=#D2D2D2;strokeColor=none;labelBackgroundColor=none;" parent="1" vertex="1">
          <mxGeometry x="832" y="1174" width="100" height="60" as="geometry" />
        </mxCell>
        <mxCell id="7B-5MxKFfp5NG75ATEqm-98" value="RFID写码器" style="rounded=0;whiteSpace=wrap;html=1;glass=0;fontSize=14;fillColor=#D2D2D2;strokeColor=none;labelBackgroundColor=none;" parent="1" vertex="1">
          <mxGeometry x="832" y="975" width="100" height="60" as="geometry" />
        </mxCell>
        <mxCell id="7B-5MxKFfp5NG75ATEqm-99" value="打印机" style="rounded=0;whiteSpace=wrap;html=1;glass=0;fontSize=14;fillColor=#D2D2D2;strokeColor=none;labelBackgroundColor=none;" parent="1" vertex="1">
          <mxGeometry x="832" y="1070" width="100" height="60" as="geometry" />
        </mxCell>
        <mxCell id="7B-5MxKFfp5NG75ATEqm-100" value="图像存储服务" style="rounded=0;whiteSpace=wrap;html=1;glass=0;fontSize=18;fillColor=#333333;strokeColor=none;fontColor=#FFFFFF;" parent="1" vertex="1">
          <mxGeometry x="1181" y="580.5" width="160" height="71" as="geometry" />
        </mxCell>
        <mxCell id="7B-5MxKFfp5NG75ATEqm-104" value="分拣系统服务" style="rounded=0;whiteSpace=wrap;html=1;glass=0;fontSize=18;fillColor=#333333;strokeColor=none;fontColor=#FFFFFF;" parent="1" vertex="1">
          <mxGeometry x="788" y="416" width="173" height="60" as="geometry" />
        </mxCell>
        <mxCell id="7B-5MxKFfp5NG75ATEqm-106" value="主控设备管理服务" style="rounded=0;whiteSpace=wrap;html=1;glass=0;fontSize=18;fillColor=#333333;strokeColor=none;fontColor=#FFFFFF;" parent="1" vertex="1">
          <mxGeometry x="541" y="416" width="200" height="60" as="geometry" />
        </mxCell>
        <mxCell id="7B-5MxKFfp5NG75ATEqm-107" value="SCADA服务" style="rounded=0;whiteSpace=wrap;html=1;glass=0;fontSize=18;fillColor=#333333;strokeColor=none;fontColor=#FFFFFF;" parent="1" vertex="1">
          <mxGeometry x="362" y="417.32" width="130" height="58.68" as="geometry" />
        </mxCell>
        <mxCell id="7B-5MxKFfp5NG75ATEqm-111" value="一键回滚" style="whiteSpace=wrap;html=1;rounded=0;shadow=0;strokeColor=none;strokeWidth=2;fillColor=#d5e8d4;fontSize=14;align=center;arcSize=3;verticalAlign=top;spacingTop=4;glass=0;sketch=0;spacing=0;" parent="1" vertex="1">
          <mxGeometry x="881.0000000000001" y="601" width="84.2" height="30" as="geometry" />
        </mxCell>
        <mxCell id="7B-5MxKFfp5NG75ATEqm-112" value="参数配置" style="whiteSpace=wrap;html=1;rounded=0;shadow=0;strokeColor=none;strokeWidth=2;fillColor=#d5e8d4;fontSize=14;align=center;arcSize=3;verticalAlign=top;spacingTop=4;glass=0;sketch=0;spacing=0;" parent="1" vertex="1">
          <mxGeometry x="788.0000000000001" y="601" width="84.2" height="30" as="geometry" />
        </mxCell>
        <mxCell id="7B-5MxKFfp5NG75ATEqm-113" value="计划同步" style="whiteSpace=wrap;html=1;rounded=0;shadow=0;strokeColor=none;strokeWidth=2;fillColor=#d5e8d4;fontSize=14;align=center;arcSize=3;verticalAlign=top;spacingTop=4;glass=0;sketch=0;spacing=0;" parent="1" vertex="1">
          <mxGeometry x="788.2000000000002" y="640" width="84.2" height="30" as="geometry" />
        </mxCell>
        <mxCell id="7B-5MxKFfp5NG75ATEqm-114" value="数据埋点" style="whiteSpace=wrap;html=1;rounded=0;shadow=0;strokeColor=none;strokeWidth=2;fillColor=#d5e8d4;fontSize=14;align=center;arcSize=3;verticalAlign=top;spacingTop=4;glass=0;sketch=0;spacing=0;" parent="1" vertex="1">
          <mxGeometry x="881.0000000000001" y="640" width="84.2" height="30" as="geometry" />
        </mxCell>
        <mxCell id="7B-5MxKFfp5NG75ATEqm-116" value="&amp;nbsp;IOT设备管理平台&amp;nbsp;" style="rounded=0;whiteSpace=wrap;html=1;glass=0;fontSize=18;fillColor=#333333;strokeColor=none;fontColor=#FFFFFF;" parent="1" vertex="1">
          <mxGeometry x="361" y="148.25" width="190" height="63.5" as="geometry" />
        </mxCell>
        <mxCell id="7B-5MxKFfp5NG75ATEqm-117" value="分拣系统总部平台" style="rounded=0;whiteSpace=wrap;html=1;glass=0;fontSize=18;fillColor=#333333;strokeColor=none;fontColor=#FFFFFF;" parent="1" vertex="1">
          <mxGeometry x="620" y="148.25" width="180" height="63.5" as="geometry" />
        </mxCell>
        <mxCell id="7B-5MxKFfp5NG75ATEqm-118" value="业务系统平台" style="rounded=0;whiteSpace=wrap;html=1;glass=0;fontSize=18;fillColor=#333333;strokeColor=none;fontColor=#FFFFFF;" parent="1" vertex="1">
          <mxGeometry x="950" y="148.25" width="190" height="63.5" as="geometry" />
        </mxCell>
        <mxCell id="7B-5MxKFfp5NG75ATEqm-119" value="其他系统平台" style="rounded=0;whiteSpace=wrap;html=1;glass=0;fontSize=18;fillColor=#333333;strokeColor=none;fontColor=#FFFFFF;" parent="1" vertex="1">
          <mxGeometry x="1260" y="148.25" width="130" height="63.5" as="geometry" />
        </mxCell>
        <mxCell id="7B-5MxKFfp5NG75ATEqm-127" value="单件分离设备" style="whiteSpace=wrap;html=1;glass=0;fontSize=15;fillColor=#B3B3B3;labelPosition=center;verticalLabelPosition=top;align=left;verticalAlign=bottom;" parent="1" vertex="1">
          <mxGeometry x="620" y="1410" width="167.2" height="80" as="geometry" />
        </mxCell>
        <mxCell id="7B-5MxKFfp5NG75ATEqm-128" value="控制&amp;amp;状态模块" style="rounded=0;whiteSpace=wrap;html=1;glass=0;fontSize=15;fillColor=#B3B3B3;" parent="1" vertex="1">
          <mxGeometry x="631" y="1418" width="70" height="60" as="geometry" />
        </mxCell>
        <mxCell id="7B-5MxKFfp5NG75ATEqm-132" style="edgeStyle=orthogonalEdgeStyle;rounded=0;orthogonalLoop=1;jettySize=auto;html=1;fontFamily=Times New Roman;fontSize=13;startArrow=none;startFill=0;endArrow=block;endFill=1;strokeColor=#000000;strokeWidth=2;exitX=1;exitY=0.5;exitDx=0;exitDy=0;" parent="1" source="7B-5MxKFfp5NG75ATEqm-130" edge="1">
          <mxGeometry relative="1" as="geometry">
            <mxPoint x="1390" y="1520" as="targetPoint" />
            <Array as="points">
              <mxPoint x="810" y="1448" />
              <mxPoint x="810" y="1520" />
            </Array>
          </mxGeometry>
        </mxCell>
        <mxCell id="7B-5MxKFfp5NG75ATEqm-130" value="图像模块" style="rounded=0;whiteSpace=wrap;html=1;glass=0;fontSize=15;fillColor=#B3B3B3;" parent="1" vertex="1">
          <mxGeometry x="712" y="1418" width="70" height="60" as="geometry" />
        </mxCell>
        <mxCell id="7B-5MxKFfp5NG75ATEqm-131" value="" style="endArrow=block;html=1;rounded=0;fontSize=15;strokeColor=#000000;strokeWidth=2;exitX=0;exitY=0.5;exitDx=0;exitDy=0;startArrow=none;endFill=1;startFill=0;" parent="1" source="7B-5MxKFfp5NG75ATEqm-128" edge="1">
          <mxGeometry width="50" height="50" relative="1" as="geometry">
            <mxPoint x="1075" y="1331" as="sourcePoint" />
            <mxPoint x="580" y="1448" as="targetPoint" />
          </mxGeometry>
        </mxCell>
        <mxCell id="7B-5MxKFfp5NG75ATEqm-145" value="&lt;span style=&quot;font-size: 14px;&quot;&gt;编码器&lt;/span&gt;" style="rounded=0;html=1;glass=0;fontSize=14;fillColor=#D2D2D2;align=center;verticalAlign=middle;labelPosition=center;verticalLabelPosition=middle;fontColor=default;labelBackgroundColor=none;strokeColor=none;" parent="1" vertex="1">
          <mxGeometry x="640" y="1206" width="90" height="30" as="geometry" />
        </mxCell>
        <mxCell id="7B-5MxKFfp5NG75ATEqm-149" value="&lt;span style=&quot;font-size: 12px ; background-color: rgb(255 , 255 , 255)&quot;&gt;皮带机&lt;/span&gt;" style="rounded=0;html=1;glass=0;fontSize=15;fillColor=#B3B3B3;align=center;verticalAlign=middle;labelPosition=center;verticalLabelPosition=middle;" parent="1" vertex="1">
          <mxGeometry x="620" y="1343" width="48" height="23" as="geometry" />
        </mxCell>
        <mxCell id="7B-5MxKFfp5NG75ATEqm-150" value="&lt;span style=&quot;font-size: 12px ; background-color: rgb(255 , 255 , 255)&quot;&gt;模组带&lt;/span&gt;" style="rounded=0;html=1;glass=0;fontSize=15;fillColor=#B3B3B3;align=center;verticalAlign=middle;labelPosition=center;verticalLabelPosition=middle;" parent="1" vertex="1">
          <mxGeometry x="745.7" y="1294" width="48" height="23" as="geometry" />
        </mxCell>
        <mxCell id="7B-5MxKFfp5NG75ATEqm-151" value="&lt;span style=&quot;font-size: 12px ; background-color: rgb(255 , 255 , 255)&quot;&gt;滚筒机&lt;/span&gt;" style="rounded=0;html=1;glass=0;fontSize=15;fillColor=#B3B3B3;align=center;verticalAlign=middle;labelPosition=center;verticalLabelPosition=middle;" parent="1" vertex="1">
          <mxGeometry x="620" y="1294" width="48" height="23" as="geometry" />
        </mxCell>
        <mxCell id="7B-5MxKFfp5NG75ATEqm-152" value="&lt;span style=&quot;font-size: 12px ; background-color: rgb(255 , 255 , 255)&quot;&gt;翻转皮带机&lt;/span&gt;" style="rounded=0;html=1;glass=0;fontSize=15;fillColor=#B3B3B3;align=center;verticalAlign=middle;labelPosition=center;verticalLabelPosition=middle;" parent="1" vertex="1">
          <mxGeometry x="682.85" y="1343" width="48" height="23" as="geometry" />
        </mxCell>
        <mxCell id="7B-5MxKFfp5NG75ATEqm-153" value="&lt;span style=&quot;font-size: 12px ; background-color: rgb(255 , 255 , 255)&quot;&gt;伸缩皮带机&lt;/span&gt;" style="rounded=0;html=1;glass=0;fontSize=15;fillColor=#B3B3B3;align=center;verticalAlign=middle;labelPosition=center;verticalLabelPosition=middle;" parent="1" vertex="1">
          <mxGeometry x="682.85" y="1294" width="48" height="23" as="geometry" />
        </mxCell>
        <mxCell id="7B-5MxKFfp5NG75ATEqm-155" value="&lt;span style=&quot;font-size: 12px ; background-color: rgb(255 , 255 , 255)&quot;&gt;供件台&lt;/span&gt;" style="rounded=0;html=1;glass=0;fontSize=15;fillColor=#B3B3B3;align=center;verticalAlign=middle;labelPosition=center;verticalLabelPosition=middle;" parent="1" vertex="1">
          <mxGeometry x="745.5" y="1344" width="48" height="23" as="geometry" />
        </mxCell>
        <mxCell id="7B-5MxKFfp5NG75ATEqm-156" value="&lt;span style=&quot;font-size: 14px;&quot;&gt;小车单元&lt;/span&gt;" style="rounded=0;html=1;glass=0;fontSize=14;fillColor=#D2D2D2;align=center;verticalAlign=middle;labelPosition=center;verticalLabelPosition=middle;fontColor=default;labelBackgroundColor=none;strokeColor=none;" parent="1" vertex="1">
          <mxGeometry x="640" y="1165" width="90" height="30" as="geometry" />
        </mxCell>
        <mxCell id="7B-5MxKFfp5NG75ATEqm-159" value="&lt;span style=&quot;font-size: 14px;&quot;&gt;倒笼机&lt;/span&gt;" style="rounded=0;html=1;glass=0;fontSize=14;fillColor=#D2D2D2;align=center;verticalAlign=middle;labelPosition=center;verticalLabelPosition=middle;strokeColor=none;fontColor=default;labelBackgroundColor=none;flipV=1;flipH=1;" parent="1" vertex="1">
          <mxGeometry x="430" y="1178" width="90" height="30" as="geometry" />
        </mxCell>
        <mxCell id="7B-5MxKFfp5NG75ATEqm-160" value="&lt;span style=&quot;font-size: 14px;&quot;&gt;升降机&lt;/span&gt;" style="rounded=0;html=1;glass=0;fontSize=14;fillColor=#D2D2D2;align=center;verticalAlign=middle;labelPosition=center;verticalLabelPosition=middle;strokeColor=none;fontColor=default;labelBackgroundColor=none;flipV=1;flipH=1;" parent="1" vertex="1">
          <mxGeometry x="430" y="1099" width="90" height="30" as="geometry" />
        </mxCell>
        <mxCell id="7B-5MxKFfp5NG75ATEqm-161" value="&lt;span style=&quot;font-size: 14px;&quot;&gt;电源监控&lt;/span&gt;" style="rounded=0;html=1;glass=0;fontSize=14;fillColor=#D2D2D2;align=center;verticalAlign=middle;labelPosition=center;verticalLabelPosition=middle;strokeColor=none;fontColor=default;labelBackgroundColor=none;flipV=1;flipH=1;" parent="1" vertex="1">
          <mxGeometry x="431" y="1138" width="90" height="30" as="geometry" />
        </mxCell>
        <mxCell id="7B-5MxKFfp5NG75ATEqm-162" value="窄带" style="rounded=0;glass=0;fontSize=14;fillColor=#D2D2D2;align=center;verticalAlign=middle;labelPosition=center;verticalLabelPosition=middle;strokeColor=none;labelBackgroundColor=none;" parent="1" vertex="1">
          <mxGeometry x="431" y="1307" width="90" height="30" as="geometry" />
        </mxCell>
        <mxCell id="7B-5MxKFfp5NG75ATEqm-163" value="摆轮" style="rounded=0;glass=0;fontSize=14;fillColor=#D2D2D2;align=center;verticalAlign=middle;labelPosition=center;verticalLabelPosition=middle;strokeColor=none;labelBackgroundColor=none;" parent="1" vertex="1">
          <mxGeometry x="431" y="1268" width="90" height="30" as="geometry" />
        </mxCell>
        <mxCell id="7B-5MxKFfp5NG75ATEqm-164" value="摆臂机" style="rounded=0;glass=0;fontSize=14;fillColor=#D2D2D2;align=center;verticalAlign=middle;labelPosition=center;verticalLabelPosition=middle;strokeColor=none;labelBackgroundColor=none;" parent="1" vertex="1">
          <mxGeometry x="431" y="1382" width="90" height="30" as="geometry" />
        </mxCell>
        <mxCell id="7B-5MxKFfp5NG75ATEqm-165" value="交叉带" style="rounded=0;glass=0;fontSize=14;fillColor=#D2D2D2;align=center;verticalAlign=middle;labelPosition=center;verticalLabelPosition=middle;strokeColor=none;labelBackgroundColor=none;" parent="1" vertex="1">
          <mxGeometry x="431" y="1345" width="90" height="30" as="geometry" />
        </mxCell>
        <mxCell id="7B-5MxKFfp5NG75ATEqm-166" value="滑块" style="rounded=0;glass=0;fontSize=14;fillColor=#D2D2D2;align=center;verticalAlign=middle;labelPosition=center;verticalLabelPosition=middle;strokeColor=none;labelBackgroundColor=none;" parent="1" vertex="1">
          <mxGeometry x="431" y="1421" width="90" height="30" as="geometry" />
        </mxCell>
        <mxCell id="7B-5MxKFfp5NG75ATEqm-167" value="顶升模组" style="rounded=0;glass=0;fontSize=14;fillColor=#D2D2D2;align=center;verticalAlign=middle;labelPosition=center;verticalLabelPosition=middle;strokeColor=none;labelBackgroundColor=none;" parent="1" vertex="1">
          <mxGeometry x="431" y="1459" width="90" height="30" as="geometry" />
        </mxCell>
        <mxCell id="7B-5MxKFfp5NG75ATEqm-169" value="机械手" style="rounded=0;glass=0;fontSize=14;fillColor=#D2D2D2;align=center;verticalAlign=middle;labelPosition=center;verticalLabelPosition=middle;strokeColor=none;labelBackgroundColor=none;" parent="1" vertex="1">
          <mxGeometry x="431" y="1494" width="90" height="30" as="geometry" />
        </mxCell>
        <mxCell id="7B-5MxKFfp5NG75ATEqm-175" value="" style="endArrow=block;html=1;rounded=0;fontSize=14;strokeColor=#000000;strokeWidth=2;endFill=1;startArrow=none;startFill=0;fontColor=default;labelBackgroundColor=none;" parent="1" edge="1">
          <mxGeometry width="50" height="50" relative="1" as="geometry">
            <mxPoint x="540" y="990" as="sourcePoint" />
            <mxPoint x="561.6" y="990" as="targetPoint" />
          </mxGeometry>
        </mxCell>
        <mxCell id="7B-5MxKFfp5NG75ATEqm-177" value="" style="endArrow=block;html=1;rounded=0;fontSize=14;strokeColor=#000000;strokeWidth=2;endFill=1;startArrow=none;startFill=0;fontColor=default;labelBackgroundColor=none;" parent="1" edge="1">
          <mxGeometry width="50" height="50" relative="1" as="geometry">
            <mxPoint x="530" y="1111" as="sourcePoint" />
            <mxPoint x="561.5999999999999" y="1110.57" as="targetPoint" />
          </mxGeometry>
        </mxCell>
        <mxCell id="7B-5MxKFfp5NG75ATEqm-178" value="" style="endArrow=block;html=1;rounded=0;fontSize=14;strokeColor=#000000;strokeWidth=2;endFill=1;startArrow=none;startFill=0;fontColor=default;labelBackgroundColor=none;" parent="1" edge="1">
          <mxGeometry width="50" height="50" relative="1" as="geometry">
            <mxPoint x="631" y="989" as="sourcePoint" />
            <mxPoint x="591" y="989" as="targetPoint" />
          </mxGeometry>
        </mxCell>
        <mxCell id="7B-5MxKFfp5NG75ATEqm-179" value="" style="endArrow=block;html=1;rounded=0;fontSize=14;strokeColor=#000000;strokeWidth=2;endFill=1;startArrow=none;startFill=0;fontColor=default;labelBackgroundColor=none;" parent="1" edge="1">
          <mxGeometry width="50" height="50" relative="1" as="geometry">
            <mxPoint x="631" y="1073" as="sourcePoint" />
            <mxPoint x="591" y="1073" as="targetPoint" />
          </mxGeometry>
        </mxCell>
        <mxCell id="7B-5MxKFfp5NG75ATEqm-180" value="" style="endArrow=block;html=1;rounded=0;fontSize=14;strokeColor=#000000;strokeWidth=2;endFill=1;startArrow=none;startFill=0;fontColor=default;labelBackgroundColor=none;" parent="1" edge="1">
          <mxGeometry width="50" height="50" relative="1" as="geometry">
            <mxPoint x="631" y="1188.13" as="sourcePoint" />
            <mxPoint x="591" y="1188.13" as="targetPoint" />
          </mxGeometry>
        </mxCell>
        <mxCell id="7B-5MxKFfp5NG75ATEqm-182" value="&lt;span style=&quot;font-size: 14px;&quot;&gt;速度传感器&lt;/span&gt;" style="rounded=0;html=1;glass=0;fontSize=14;fillColor=#D2D2D2;align=center;verticalAlign=middle;labelPosition=center;verticalLabelPosition=middle;strokeColor=none;fontColor=default;labelBackgroundColor=none;flipV=1;flipH=1;" parent="1" vertex="1">
          <mxGeometry x="430" y="945" width="90" height="30" as="geometry" />
        </mxCell>
        <mxCell id="7B-5MxKFfp5NG75ATEqm-183" value="&lt;span style=&quot;font-size: 14px;&quot;&gt;光电传感器&lt;/span&gt;" style="rounded=0;html=1;glass=0;fontSize=14;fillColor=#D2D2D2;align=center;verticalAlign=middle;labelPosition=center;verticalLabelPosition=middle;fontColor=default;labelBackgroundColor=none;strokeColor=none;" parent="1" vertex="1">
          <mxGeometry x="640" y="960" width="90" height="30" as="geometry" />
        </mxCell>
        <mxCell id="7B-5MxKFfp5NG75ATEqm-184" value="&lt;span style=&quot;font-size: 14px;&quot;&gt;按钮操作类&lt;/span&gt;" style="rounded=0;html=1;glass=0;fontSize=14;fillColor=#D2D2D2;align=center;verticalAlign=middle;labelPosition=center;verticalLabelPosition=middle;fontColor=default;labelBackgroundColor=none;strokeColor=none;" parent="1" vertex="1">
          <mxGeometry x="640" y="998" width="90" height="30" as="geometry" />
        </mxCell>
        <mxCell id="7B-5MxKFfp5NG75ATEqm-185" value="&lt;span style=&quot;font-size: 14px;&quot;&gt;红外传感器&lt;/span&gt;" style="rounded=0;html=1;glass=0;fontSize=14;fillColor=#D2D2D2;align=center;verticalAlign=middle;labelPosition=center;verticalLabelPosition=middle;strokeColor=none;fontColor=default;labelBackgroundColor=none;flipV=1;flipH=1;" parent="1" vertex="1">
          <mxGeometry x="430" y="983" width="90" height="30" as="geometry" />
        </mxCell>
        <mxCell id="7B-5MxKFfp5NG75ATEqm-186" value="&lt;span style=&quot;font-size: 14px;&quot;&gt;压力传感器&lt;/span&gt;" style="rounded=0;html=1;glass=0;fontSize=14;fillColor=#D2D2D2;align=center;verticalAlign=middle;labelPosition=center;verticalLabelPosition=middle;strokeColor=none;fontColor=default;labelBackgroundColor=none;flipV=1;flipH=1;" parent="1" vertex="1">
          <mxGeometry x="431" y="1023" width="90" height="30" as="geometry" />
        </mxCell>
        <mxCell id="7B-5MxKFfp5NG75ATEqm-187" value="&lt;span style=&quot;font-size: 14px;&quot;&gt;光栅&lt;/span&gt;" style="rounded=0;html=1;glass=0;fontSize=14;fillColor=#D2D2D2;align=center;verticalAlign=middle;labelPosition=center;verticalLabelPosition=middle;fontColor=default;labelBackgroundColor=none;strokeColor=none;" parent="1" vertex="1">
          <mxGeometry x="640" y="1040" width="90" height="30" as="geometry" />
        </mxCell>
        <mxCell id="7B-5MxKFfp5NG75ATEqm-188" value="&lt;span style=&quot;font-size: 14px;&quot;&gt;塔灯&lt;/span&gt;" style="rounded=0;html=1;glass=0;fontSize=14;fillColor=#D2D2D2;align=center;verticalAlign=middle;labelPosition=center;verticalLabelPosition=middle;strokeColor=none;fontColor=default;labelBackgroundColor=none;flipV=1;flipH=1;" parent="1" vertex="1">
          <mxGeometry x="430" y="1060.5" width="90" height="30" as="geometry" />
        </mxCell>
        <mxCell id="7B-5MxKFfp5NG75ATEqm-189" value="&lt;span style=&quot;font-size: 14px;&quot;&gt;时钟脉冲&lt;/span&gt;" style="rounded=0;html=1;glass=0;fontSize=14;fillColor=#D2D2D2;align=center;verticalAlign=middle;labelPosition=center;verticalLabelPosition=middle;fontColor=default;labelBackgroundColor=none;strokeColor=none;" parent="1" vertex="1">
          <mxGeometry x="640" y="1081" width="90" height="30" as="geometry" />
        </mxCell>
        <mxCell id="7B-5MxKFfp5NG75ATEqm-190" value="&lt;span style=&quot;font-size: 14px;&quot;&gt;AGV&lt;/span&gt;" style="rounded=0;html=1;glass=0;fontSize=14;fillColor=#D2D2D2;align=center;verticalAlign=middle;labelPosition=center;verticalLabelPosition=middle;fontColor=default;labelBackgroundColor=none;strokeColor=none;" parent="1" vertex="1">
          <mxGeometry x="640" y="1123" width="90" height="30" as="geometry" />
        </mxCell>
        <mxCell id="7B-5MxKFfp5NG75ATEqm-76" value="" style="endArrow=block;html=1;rounded=0;fontSize=15;strokeColor=#000000;strokeWidth=2;exitX=0;exitY=0.5;exitDx=0;exitDy=0;endFill=1;" parent="1" source="7B-5MxKFfp5NG75ATEqm-73" edge="1">
          <mxGeometry width="50" height="50" relative="1" as="geometry">
            <mxPoint x="1075" y="1170" as="sourcePoint" />
            <mxPoint x="1000" y="1319" as="targetPoint" />
          </mxGeometry>
        </mxCell>
        <mxCell id="7B-5MxKFfp5NG75ATEqm-82" value="" style="endArrow=block;html=1;rounded=0;fontSize=15;strokeColor=#000000;strokeWidth=2;startArrow=none;exitX=0;exitY=0.5;exitDx=0;exitDy=0;endFill=1;" parent="1" source="7B-5MxKFfp5NG75ATEqm-79" edge="1">
          <mxGeometry width="50" height="50" relative="1" as="geometry">
            <mxPoint x="1030" y="1420" as="sourcePoint" />
            <mxPoint x="996" y="1453" as="targetPoint" />
          </mxGeometry>
        </mxCell>
      </root>
    </mxGraphModel>
  </diagram>
</mxfile>
